<?xml version="1.0" standalone="no"?>
<!DOCTYPE svg PUBLIC "-//W3C//DTD SVG 20010904//EN"
 "http://www.w3.org/TR/2001/REC-SVG-20010904/DTD/svg10.dtd">
<svg version="1.0" xmlns="http://www.w3.org/2000/svg"
 width="300.000000pt" height="300.000000pt" viewBox="0 0 300.000000 300.000000"
 preserveAspectRatio="xMidYMid meet">
<metadata>
Created by potrace 1.10, written by Peter Selinger 2001-2011
</metadata>
<g transform="translate(0.000000,300.000000) scale(0.100000,-0.100000)"
fill="#000000" stroke="none">
<path d="M852 2550 l-633 -439 -57 -3 -57 -3 -3 -125 c-3 -151 -4 -150 110
-150 l78 0 0 -83 c0 -95 7 -107 62 -107 l38 0 0 -480 0 -480 -33 0 c-54 0 -67
-23 -67 -118 l0 -82 -83 0 c-51 0 -88 -5 -95 -12 -7 -7 -12 -44 -12 -95 l0
-83 -34 0 c-36 0 -66 -21 -66 -46 0 -11 4 -12 19 -4 11 5 30 10 44 10 13 0 33
10 45 23 19 20 22 35 22 100 l0 77 78 0 c103 0 112 9 112 112 l0 75 40 7 c24
4 43 14 50 25 6 13 10 187 10 494 0 446 -1 475 -18 490 -10 10 -33 17 -50 17
l-32 0 0 83 c0 51 -5 88 -12 95 -7 7 -40 12 -79 12 -102 0 -99 -4 -99 116 l0
104 49 0 c34 0 58 7 82 23 62 42 232 159 399 276 91 63 208 144 260 180 52 36
199 137 325 225 127 87 239 161 250 163 13 2 136 -77 375 -241 195 -135 360
-249 365 -254 6 -4 61 -43 123 -85 62 -43 151 -105 198 -137 46 -33 89 -60 94
-60 4 0 10 -4 12 -8 2 -5 27 -25 57 -45 43 -30 62 -37 102 -37 l49 0 0 -104
c0 -120 4 -116 -100 -116 -43 0 -71 -5 -78 -13 -6 -7 -12 -49 -14 -92 l-3 -80
-30 -3 c-68 -8 -65 17 -65 -514 0 -465 1 -479 20 -498 11 -11 33 -20 50 -20
l30 0 0 -78 c0 -103 9 -112 113 -112 87 0 82 7 77 -98 -2 -44 2 -58 21 -78 12
-13 33 -24 46 -24 14 0 33 -5 44 -10 15 -8 19 -7 19 4 0 25 -30 46 -66 46
l-34 0 0 83 c0 51 -5 88 -12 95 -7 7 -44 12 -95 12 l-83 0 0 83 c0 95 -13 117
-68 117 l-32 0 0 480 0 480 38 0 c55 0 62 12 62 107 l0 83 78 0 c114 0 113 -1
110 150 l-3 125 -60 5 -60 5 -632 438 c-347 240 -637 437 -645 436 -7 0 -298
-198 -646 -439z"/>
<path d="M1314 2797 c-98 -68 -285 -197 -414 -286 -129 -90 -284 -197 -345
-239 -193 -131 -219 -158 -176 -182 12 -6 126 -10 300 -10 181 0 281 -4 281
-10 0 -6 -135 -10 -384 -10 -336 0 -387 -2 -400 -16 -19 -19 -22 -124 -4 -142
9 -9 318 -12 1328 -12 1010 0 1319 3 1328 12 18 18 15 123 -4 142 -14 14 -106
16 -860 16 -556 0 -844 3 -844 10 0 7 255 10 744 10 664 0 746 2 760 16 9 8
16 19 16 23 0 13 -53 57 -150 123 -52 35 -264 181 -470 324 -436 303 -495 343
-513 350 -7 2 -94 -51 -193 -119z m748 -294 l559 -388 -760 -3 c-748 -2 -761
-2 -771 -22 -8 -14 -8 -26 0 -40 11 -20 21 -20 870 -20 l860 0 0 -55 0 -55
-1320 0 -1320 0 0 55 0 55 400 0 c389 0 400 1 410 20 8 14 8 26 0 40 -10 19
-23 20 -311 22 l-300 3 558 387 c307 213 560 387 561 388 2 0 256 -174 564
-387z"/>
<path d="M1425 2480 c-62 -41 -83 -126 -45 -187 56 -92 177 -94 237 -4 41 62
22 152 -42 191 -42 26 -110 26 -150 0z m158 -50 c72 -81 -13 -205 -118 -170
-71 24 -99 107 -54 164 28 36 55 47 104 41 29 -3 48 -12 68 -35z"/>
<path d="M1474 2440 c-12 -5 -29 -19 -38 -32 -57 -81 52 -174 119 -102 31 34
32 75 3 108 -27 29 -55 38 -84 26z m54 -36 c24 -17 30 -62 10 -82 -7 -7 -24
-12 -38 -12 -33 0 -50 17 -50 51 0 24 30 59 50 59 3 0 16 -7 28 -16z"/>
<path d="M360 1841 c-15 -29 -12 -104 6 -129 15 -21 20 -22 205 -22 112 0 198
4 210 10 16 9 19 22 19 73 0 36 -5 68 -12 75 -9 9 -70 12 -215 12 -190 0 -203
-1 -213 -19z m420 -63 l0 -53 -200 0 -200 0 0 53 0 52 200 0 200 0 0 -52z"/>
<path d="M847 1842 c-13 -14 -17 -38 -17 -95 l0 -77 -28 0 c-17 0 -37 -9 -48
-21 -18 -20 -19 -43 -19 -494 0 -451 1 -474 19 -494 11 -12 31 -21 48 -21 l28
0 0 -73 c0 -119 -4 -117 210 -117 210 0 200 -6 200 114 l0 76 34 0 c67 0 66
-11 66 521 0 527 3 503 -65 511 l-30 3 -3 80 c-2 43 -8 85 -14 92 -8 10 -55
13 -188 13 -159 0 -179 -2 -193 -18z m365 -86 c-4 -95 6 -116 58 -116 l40 0 0
-480 0 -480 -32 0 c-55 0 -68 -22 -68 -117 l0 -83 -175 0 -175 0 0 90 c0 97
-7 110 -64 110 l-26 0 0 480 0 480 33 0 c50 0 57 14 57 107 l0 83 178 0 177 0
-3 -74z"/>
<path d="M1292 1848 c-7 -7 -12 -39 -12 -73 0 -34 5 -66 12 -73 17 -17 399
-17 416 0 7 7 12 39 12 73 0 34 -5 66 -12 73 -17 17 -399 17 -416 0z m408 -70
l0 -53 -200 0 -200 0 0 53 0 52 200 0 200 0 0 -52z"/>
<path d="M1772 1847 c-6 -7 -12 -49 -14 -92 l-3 -80 -31 -3 c-18 -2 -40 -12
-50 -24 -18 -19 -19 -46 -19 -487 0 -426 2 -469 17 -493 12 -18 28 -28 50 -30
l33 -3 3 -82 c2 -53 7 -85 16 -92 9 -8 72 -11 191 -9 146 3 179 6 186 18 4 8
11 50 14 93 7 76 7 77 34 77 62 0 61 -12 61 517 0 532 3 507 -65 515 l-30 3
-3 80 c-2 43 -8 85 -14 92 -8 10 -55 13 -188 13 -133 0 -180 -3 -188 -13z
m368 -100 c0 -93 7 -107 57 -107 l33 0 0 -480 0 -480 -26 0 c-57 0 -64 -13
-64 -110 l0 -90 -175 0 -175 0 0 82 c0 95 -13 118 -67 118 l-33 0 0 480 0 480
40 0 c52 0 62 21 58 116 l-3 74 178 0 177 0 0 -83z"/>
<path d="M2212 1848 c-7 -7 -12 -38 -12 -69 0 -90 -2 -89 225 -89 189 0 194 1
209 22 18 25 21 100 6 129 -10 18 -23 19 -213 19 -145 0 -206 -3 -215 -12z
m408 -70 l0 -53 -200 0 -200 0 0 53 0 52 200 0 200 0 0 -52z"/>
<path d="M467 1655 c-35 -34 -34 -959 0 -997 13 -15 33 -18 114 -18 89 0 99 2
113 22 13 19 16 87 16 496 0 429 -1 477 -16 494 -14 15 -33 18 -115 18 -72 0
-101 -4 -112 -15z m213 -497 l0 -483 -102 3 -103 3 0 480 0 479 103 0 102 0 0
-482z"/>
<path d="M1384 1649 c-18 -20 -19 -43 -19 -494 0 -565 -13 -515 135 -515 81 0
100 3 113 18 15 17 17 66 17 499 0 452 -1 481 -18 496 -15 13 -39 17 -114 17
-84 0 -97 -2 -114 -21z m216 -489 l0 -480 -100 0 -100 0 0 480 0 480 100 0
100 0 0 -480z"/>
<path d="M2307 1652 c-15 -17 -17 -66 -17 -493 0 -413 2 -477 16 -497 14 -20
23 -22 113 -22 83 0 100 3 115 19 15 17 17 56 21 357 5 413 -3 631 -25 644 -8
5 -58 10 -111 10 -80 0 -99 -3 -112 -18z m218 -492 l0 -480 -102 0 -103 0 0
480 0 480 103 0 102 0 0 -480z"/>
<path d="M367 602 c-11 -12 -17 -36 -17 -69 0 -82 3 -83 231 -83 138 0 198 3
207 12 7 7 12 39 12 73 0 34 -5 66 -12 73 -9 9 -69 12 -208 12 -178 0 -198 -2
-213 -18z m413 -67 l0 -55 -200 0 -200 0 0 55 0 55 200 0 200 0 0 -55z"/>
<path d="M1292 608 c-7 -7 -12 -39 -12 -73 0 -34 5 -66 12 -73 17 -17 399 -17
416 0 7 7 12 39 12 73 0 34 -5 66 -12 73 -17 17 -399 17 -416 0z m408 -73 l0
-55 -200 0 -200 0 0 55 0 55 200 0 200 0 0 -55z"/>
<path d="M2212 608 c-7 -7 -12 -39 -12 -73 0 -34 5 -66 12 -73 9 -9 69 -12
208 -12 228 0 230 1 230 87 0 82 -3 83 -231 83 -138 0 -198 -3 -207 -12z m408
-73 l0 -55 -200 0 -200 0 0 55 0 55 200 0 200 0 0 -55z"/>
<path d="M177 412 c-12 -13 -17 -36 -17 -75 0 -96 -134 -87 1340 -87 1156 0
1298 2 1318 16 18 13 22 25 22 73 0 100 144 90 -1341 91 -1254 0 -1306 -1
-1322 -18z m2643 -67 l0 -55 -1320 0 -1320 0 0 55 0 55 1320 0 1320 0 0 -55z"/>
<path d="M70 211 c-5 -11 -10 -42 -10 -69 0 -90 -147 -82 1442 -82 1348 0
1406 1 1421 18 19 21 23 102 7 133 -11 19 -37 19 -1430 19 -1393 0 -1419 0
-1430 -19z m2840 -66 l0 -55 -1410 0 -1410 0 0 55 0 55 1410 0 1410 0 0 -55z"/>
<path d="M0 54 c0 -3 5 -14 10 -25 11 -19 38 -19 1490 -19 l1479 0 11 21 c13
24 5 38 -12 21 -16 -16 -2943 -17 -2953 -2 -7 11 -25 14 -25 4z"/>
</g>
</svg>
