<?xml version="1.0" standalone="no"?>
<!DOCTYPE svg PUBLIC "-//W3C//DTD SVG 20010904//EN"
 "http://www.w3.org/TR/2001/REC-SVG-20010904/DTD/svg10.dtd">
<svg version="1.0" xmlns="http://www.w3.org/2000/svg"
 width="300.000000pt" height="300.000000pt" viewBox="0 0 300.000000 300.000000"
 preserveAspectRatio="xMidYMid meet">
<metadata>
Created by potrace 1.10, written by Peter Selinger 2001-2011
</metadata>
<g transform="translate(0.000000,300.000000) scale(0.100000,-0.100000)"
fill="#000000" stroke="none">
<path d="M710 2931 c-68 -22 -114 -45 -161 -82 -20 -16 -68 -45 -107 -65 -75
-38 -108 -69 -145 -138 -17 -33 -22 -58 -22 -126 0 -82 2 -89 47 -177 l47 -92
-30 -6 c-68 -15 -118 -91 -105 -160 12 -60 73 -115 129 -115 20 0 25 -8 36
-49 22 -85 103 -196 179 -243 32 -20 33 -21 30 -84 l-3 -65 -214 -89 c-118
-49 -231 -101 -252 -114 -22 -15 -47 -45 -63 -77 l-26 -53 0 -351 c0 -260 3
-354 12 -363 8 -8 64 -12 185 -12 l173 0 0 -191 c0 -112 4 -198 10 -210 10
-19 33 -19 1070 -19 1037 0 1060 0 1070 19 6 12 10 98 10 210 l0 191 173 0
c121 0 177 4 185 12 9 9 12 103 12 363 l0 351 -26 53 c-39 77 -35 75 -461 253
l-73 30 0 63 c0 61 1 64 33 84 75 46 156 157 178 242 11 41 16 49 36 49 56 0
117 55 129 115 13 69 -37 145 -106 160 -16 4 -30 8 -30 9 0 2 13 32 29 68 44
97 55 171 37 257 -30 143 -109 229 -282 303 -142 62 -187 72 -287 65 -100 -6
-177 -34 -256 -92 -33 -24 -82 -54 -110 -66 -72 -30 -146 -113 -167 -186 -15
-53 -15 -127 0 -164 6 -14 1 -15 -41 -8 -43 7 -92 5 -148 -6 -19 -4 -20 1 -20
88 0 84 -3 98 -32 158 -19 39 -52 84 -79 109 -49 45 -209 126 -303 154 -72 21
-191 20 -261 -3z m238 -26 c37 -9 119 -41 182 -73 96 -48 122 -65 157 -109 52
-64 73 -133 73 -233 0 -42 5 -81 11 -87 13 -13 219 -5 234 9 6 5 10 48 10 96
0 131 38 192 158 252 34 17 90 51 124 74 86 59 157 80 268 79 101 0 164 -20
303 -93 96 -51 123 -74 161 -141 59 -107 60 -216 2 -354 l-30 -70 21 -22 c12
-13 29 -23 38 -23 10 0 29 -11 44 -25 22 -20 26 -33 26 -76 0 -44 -4 -55 -31
-80 -19 -18 -42 -29 -59 -29 -34 0 -43 -10 -71 -85 -30 -81 -65 -130 -141
-197 l-65 -57 -2 -61 c-2 -64 16 -110 42 -110 7 0 31 -9 53 -19 21 -10 111
-49 198 -85 188 -78 220 -97 246 -152 19 -38 20 -61 20 -387 l0 -347 -167 0
c-202 0 -203 0 -203 -99 0 -36 -3 -123 -7 -194 l-6 -127 -1041 2 -1041 3 -3
189 c-2 159 -5 193 -19 208 -14 16 -35 18 -185 18 l-168 0 0 345 c0 272 3 353
14 378 26 62 72 90 296 182 118 48 221 95 228 103 7 10 12 45 12 87 l0 72 -60
52 c-73 64 -115 122 -143 203 -23 63 -32 73 -81 83 -42 9 -86 57 -86 95 0 51
26 89 76 110 24 11 47 27 51 36 4 10 -11 51 -37 103 -72 145 -67 260 17 346
20 21 56 46 80 57 25 11 82 45 129 77 47 32 90 58 97 59 7 1 39 8 72 16 79 19
122 19 203 1z"/>
<path d="M720 2867 c-36 -12 -95 -43 -131 -68 -35 -26 -83 -54 -104 -63 -50
-21 -112 -80 -131 -125 -8 -18 -14 -61 -14 -95 1 -52 8 -76 49 -163 58 -125
59 -163 4 -163 -25 0 -43 -8 -64 -29 -33 -33 -35 -50 -14 -91 15 -29 31 -37
89 -42 26 -3 31 -9 50 -68 12 -36 33 -86 48 -111 29 -50 104 -123 143 -141 25
-11 26 -13 23 -117 l-3 -105 -234 -98 c-251 -104 -289 -128 -310 -197 -7 -25
-11 -141 -11 -333 0 -273 1 -296 18 -311 15 -14 42 -17 154 -17 158 0 162 2
171 93 10 104 61 153 199 192 45 12 200 55 343 95 143 39 268 79 278 87 13 12
17 32 17 85 0 63 -3 72 -26 91 -113 94 -158 153 -185 245 -16 54 -25 61 -89
69 -34 4 -62 15 -81 30 -25 22 -29 32 -29 76 0 29 6 59 13 67 17 21 62 40 96
40 15 0 36 9 46 20 17 19 16 23 -29 116 -42 88 -46 102 -46 170 0 116 46 184
160 239 77 36 162 104 182 145 13 25 18 59 18 115 0 147 -65 236 -224 310
-172 80 -258 92 -376 52z m315 -58 c129 -56 180 -91 215 -146 35 -55 50 -102
50 -159 0 -50 -26 -131 -46 -138 -8 -3 -38 -23 -67 -45 -28 -21 -63 -42 -77
-46 -63 -19 -139 -93 -164 -160 -36 -96 -26 -168 40 -297 l44 -88 -50 0 c-41
0 -55 -5 -85 -31 -68 -60 -68 -148 0 -208 32 -27 55 -36 124 -43 19 -2 27 -12
38 -50 19 -68 90 -166 155 -218 l58 -45 0 -57 0 -57 -52 -15 c-29 -8 -186 -51
-348 -96 -162 -45 -313 -92 -335 -105 -68 -39 -115 -124 -115 -206 l0 -39
-140 0 -140 0 0 305 c0 324 2 336 49 379 11 10 129 64 263 120 l243 101 3 122
3 122 -56 36 c-91 61 -153 152 -171 250 -9 54 -20 65 -66 65 -52 0 -78 15 -78
45 0 36 26 55 74 55 23 0 47 5 54 12 26 26 13 86 -40 191 -44 86 -52 111 -52
157 0 87 39 145 124 182 25 11 68 37 95 58 152 113 275 126 450 49z"/>
<path d="M2035 2869 c-33 -10 -85 -37 -115 -59 -30 -22 -78 -51 -107 -65 -147
-69 -201 -198 -138 -333 23 -49 29 -54 108 -92 111 -53 159 -96 199 -178 29
-58 33 -76 33 -147 0 -67 -5 -94 -34 -169 -40 -101 -36 -118 25 -124 47 -5 90
-26 104 -51 5 -11 10 -40 10 -64 0 -60 -35 -91 -111 -100 -62 -8 -69 -14 -97
-90 -29 -76 -71 -137 -130 -183 -69 -56 -72 -61 -72 -134 0 -51 4 -71 18 -83
9 -8 94 -36 187 -62 322 -88 490 -136 517 -147 63 -24 118 -115 118 -194 0
-56 20 -64 172 -64 119 0 137 2 152 19 15 16 16 51 16 317 -1 325 -5 349 -62
402 -14 12 -130 67 -259 120 l-234 98 -3 105 c-3 104 -2 106 23 117 35 16 111
88 137 131 13 20 34 70 48 111 l26 75 47 5 c25 3 48 8 50 10 45 55 46 82 8
121 -23 23 -39 29 -70 29 -40 0 -41 1 -41 34 0 19 17 72 37 118 32 72 37 93
37 163 1 149 -62 232 -240 316 -156 74 -244 86 -359 48z m216 -23 c99 -26 245
-103 288 -153 83 -93 92 -207 28 -351 -38 -85 -47 -148 -25 -170 7 -7 31 -12
54 -12 48 0 74 -19 74 -55 0 -30 -26 -45 -78 -45 -46 0 -57 -11 -66 -65 -18
-98 -80 -189 -171 -250 l-56 -36 3 -122 3 -121 243 -102 c134 -56 252 -110
264 -120 46 -43 48 -55 48 -379 l0 -305 -140 0 -140 0 0 33 c0 85 -47 173
-114 212 -23 13 -189 64 -371 115 -181 50 -338 93 -347 96 -15 4 -18 17 -18
62 l0 57 58 45 c65 52 136 150 155 218 11 38 19 48 38 50 69 7 92 16 124 43
68 60 68 148 0 208 -30 26 -44 31 -84 31 l-49 0 36 88 c33 77 37 96 36 172 0
166 -74 276 -239 355 -97 46 -106 56 -125 140 -11 51 10 128 46 167 16 17 52
41 81 54 29 13 79 43 113 68 105 77 216 101 331 72z"/>
<path d="M1370 2350 c-62 -23 -96 -51 -87 -74 3 -8 28 -26 55 -40 55 -28 115
-83 106 -97 -10 -17 -30 -9 -60 22 -63 67 -184 90 -262 50 -77 -40 -132 -126
-132 -207 0 -69 65 -199 94 -188 7 3 26 28 41 55 15 28 33 53 41 56 8 3 40
-13 72 -34 82 -58 130 -80 200 -93 109 -19 217 12 325 94 58 44 73 45 95 5 35
-63 52 -80 72 -69 26 14 50 93 50 166 0 161 -110 272 -349 355 -73 25 -188 25
-261 -1z m343 -65 c59 -27 125 -64 147 -82 54 -47 92 -127 93 -200 1 -56 -19
-153 -32 -153 -3 0 -19 26 -36 58 -19 37 -37 58 -50 60 -11 1 -49 -19 -88 -47
-94 -69 -143 -86 -247 -86 -104 0 -153 17 -247 86 -39 28 -77 48 -88 47 -13
-2 -32 -25 -54 -68 l-35 -65 -27 60 c-50 110 -32 199 54 269 31 25 49 31 101
34 56 4 71 0 115 -23 28 -15 60 -42 73 -60 l22 -33 38 25 c21 14 38 28 38 31
0 3 -16 24 -35 48 -21 25 -59 55 -96 73 l-61 31 28 11 c83 33 113 39 194 36
77 -3 95 -8 193 -52z"/>
<path d="M1174 1865 c-12 -7 -33 -41 -48 -75 -26 -59 -27 -66 -24 -203 3 -142
3 -144 40 -218 71 -144 204 -229 358 -229 159 0 295 91 368 247 25 53 27 70
30 201 l4 143 -32 65 c-40 79 -56 90 -96 63 -16 -11 -56 -34 -89 -52 -58 -30
-65 -32 -180 -32 -115 0 -123 1 -185 32 -36 17 -79 41 -96 52 -27 18 -33 19
-50 6z m50 -40 c153 -117 400 -116 554 1 18 14 34 24 35 23 2 -2 18 -36 36
-76 l34 -72 -6 -114 c-11 -198 -68 -299 -211 -372 -74 -38 -84 -40 -166 -40
-82 0 -92 2 -166 40 -143 73 -202 176 -211 373 -6 112 -6 113 28 187 19 41 35
74 37 75 2 0 18 -11 36 -25z"/>
<path d="M935 1645 c-33 -33 -32 -70 4 -106 37 -36 83 -39 105 -7 22 31 21
101 -2 121 -28 25 -78 21 -107 -8z m95 -53 l0 -49 -32 5 c-42 6 -58 19 -58 46
0 31 19 46 57 46 33 0 33 0 33 -48z"/>
<path d="M1957 1652 c-21 -24 -22 -90 -1 -120 22 -32 68 -29 105 7 35 36 37
69 4 105 -29 32 -83 36 -108 8z m91 -24 c16 -16 15 -53 0 -66 -7 -5 -28 -12
-45 -14 l-33 -5 0 49 c0 48 0 48 33 48 18 0 38 -5 45 -12z"/>
<path d="M1347 1112 c-11 -12 -17 -36 -17 -66 0 -47 3 -51 77 -127 42 -44 84
-79 92 -79 9 0 50 33 90 74 69 69 74 78 79 125 7 75 -10 91 -86 79 -56 -10
-171 -6 -203 7 -9 3 -23 -2 -32 -13z m153 -27 c47 0 97 3 113 8 27 7 27 7 27
-40 0 -44 -4 -50 -69 -118 l-70 -72 -70 71 c-68 68 -71 74 -71 119 0 47 0 47
28 40 15 -5 65 -8 112 -8z"/>
<path d="M1070 901 c-113 -32 -268 -75 -344 -96 -107 -30 -147 -46 -173 -68
-63 -55 -64 -62 -64 -343 0 -183 3 -259 12 -270 9 -11 42 -14 154 -14 125 0
144 2 158 18 14 16 17 44 17 185 0 142 2 167 15 167 13 0 15 -25 15 -168 0
-151 2 -171 18 -185 17 -15 75 -17 624 -17 573 0 606 1 621 18 14 16 17 44 17
185 0 142 2 167 15 167 16 0 19 -51 15 -253 -2 -116 -1 -117 175 -117 111 0
145 3 154 14 16 20 17 499 1 541 -12 31 -54 81 -81 95 -20 11 -697 200 -715
200 -7 0 -56 -41 -109 -91 l-95 -92 -95 92 c-52 50 -102 91 -112 90 -10 0
-110 -26 -223 -58z m325 -61 c49 -49 97 -90 106 -90 9 0 57 41 108 91 l91 92
333 -92 c182 -50 351 -100 373 -112 71 -35 74 -49 77 -337 l2 -252 -142 0
-143 0 0 190 0 190 -45 0 -45 0 0 -190 0 -190 -610 0 -610 0 0 190 0 190 -45
0 -45 0 0 -190 0 -190 -142 0 -143 0 2 252 c3 281 7 301 67 333 30 16 671 201
706 204 9 0 56 -39 105 -89z"/>
<path d="M161 1894 c0 -11 3 -14 6 -6 3 7 2 16 -1 19 -3 4 -6 -2 -5 -13z"/>
</g>
</svg>
